<?xml version="1.0" encoding="UTF-8"?><svg xmlns="http://www.w3.org/2000/svg" xmlns:xlink="http://www.w3.org/1999/xlink" height="384.0" preserveAspectRatio="xMidYMid meet" version="1.0" viewBox="0.0 0.0 384.0 384.0" width="384.0" zoomAndPan="magnify"><defs><clipPath id="a"><path d="M 7 249 L 364 249 L 364 377 L 7 377 Z M 7 249"/></clipPath><clipPath id="b"><path d="M 376.320312 192 C 376.320312 293.796875 293.796875 376.320312 192 376.320312 C 90.203125 376.320312 7.679688 293.796875 7.679688 192 C 7.679688 90.203125 90.203125 7.679688 192 7.679688 C 293.796875 7.679688 376.320312 90.203125 376.320312 192"/></clipPath><clipPath id="c"><path d="M 376.320312 192 C 376.320312 293.796875 293.796875 376.320312 192 376.320312 C 90.203125 376.320312 7.679688 293.796875 7.679688 192 C 7.679688 90.203125 90.203125 7.679688 192 7.679688 C 293.796875 7.679688 376.320312 90.203125 376.320312 192"/></clipPath><clipPath id="e"><path d="M 7 7 L 377 7 L 377 377 L 7 377 Z M 7 7"/></clipPath><clipPath id="f"><path d="M 376.320312 192 C 376.320312 293.796875 293.796875 376.320312 192 376.320312 C 90.203125 376.320312 7.679688 293.796875 7.679688 192 C 7.679688 90.203125 90.203125 7.679688 192 7.679688 C 293.796875 7.679688 376.320312 90.203125 376.320312 192"/></clipPath><clipPath id="g"><path d="M 376.320312 192 C 376.320312 293.796875 293.796875 376.320312 192 376.320312 C 90.203125 376.320312 7.679688 293.796875 7.679688 192 C 7.679688 90.203125 90.203125 7.679688 192 7.679688 C 293.796875 7.679688 376.320312 90.203125 376.320312 192"/></clipPath><clipPath id="i"><path d="M 7 7 L 377 7 L 377 169 L 7 169 Z M 7 7"/></clipPath><clipPath id="j"><path d="M 376.320312 192 C 376.320312 293.796875 293.796875 376.320312 192 376.320312 C 90.203125 376.320312 7.679688 293.796875 7.679688 192 C 7.679688 90.203125 90.203125 7.679688 192 7.679688 C 293.796875 7.679688 376.320312 90.203125 376.320312 192"/></clipPath><clipPath id="k"><path d="M 376.320312 192 C 376.320312 293.796875 293.796875 376.320312 192 376.320312 C 90.203125 376.320312 7.679688 293.796875 7.679688 192 C 7.679688 90.203125 90.203125 7.679688 192 7.679688 C 293.796875 7.679688 376.320312 90.203125 376.320312 192"/></clipPath><clipPath id="m"><path d="M 15 15 L 369 15 L 369 369 L 15 369 Z M 15 15"/></clipPath><clipPath id="n"><path d="M 368.640625 192 C 368.640625 289.554688 289.554688 368.640625 191.996094 368.640625 C 94.445312 368.640625 15.359375 289.554688 15.359375 192 C 15.359375 94.441406 94.445312 15.359375 191.996094 15.359375 C 289.554688 15.359375 368.640625 94.441406 368.640625 192"/></clipPath><clipPath id="o"><path d="M 368.640625 192 C 368.640625 289.554688 289.554688 368.640625 191.996094 368.640625 C 94.445312 368.640625 15.359375 289.554688 15.359375 192 C 15.359375 94.441406 94.445312 15.359375 191.996094 15.359375 C 289.554688 15.359375 368.640625 94.441406 368.640625 192"/></clipPath><linearGradient gradientTransform="matrix(126.117 -346.503 394.711 143.663 -68.414 293.42)" gradientUnits="userSpaceOnUse" id="d" x1="-.141" x2=".1" xlink:actuate="onLoad" xlink:show="other" xlink:type="simple" xmlns:xlink="http://www.w3.org/1999/xlink" y1="0" y2="0"><stop offset="0" stop-color="#3f4143"/><stop offset=".5" stop-color="#3f4143"/><stop offset=".563" stop-color="#3f4143"/><stop offset=".578" stop-color="#3f4143"/><stop offset=".586" stop-color="#3f4143"/><stop offset=".59" stop-color="#3e4042"/><stop offset=".594" stop-color="#3e3f41"/><stop offset=".598" stop-color="#3d3e41"/><stop offset=".602" stop-color="#3c3e40"/><stop offset=".605" stop-color="#3c3d3f"/><stop offset=".609" stop-color="#3b3d3f"/><stop offset=".613" stop-color="#3a3c3e"/><stop offset=".617" stop-color="#3a3b3d"/><stop offset=".621" stop-color="#393a3c"/><stop offset=".625" stop-color="#383a3c"/><stop offset=".629" stop-color="#37393b"/><stop offset=".633" stop-color="#37383a"/><stop offset=".637" stop-color="#36383a"/><stop offset=".641" stop-color="#363739"/><stop offset=".645" stop-color="#353638"/><stop offset=".648" stop-color="#343537"/><stop offset=".652" stop-color="#333537"/><stop offset=".656" stop-color="#323436"/><stop offset=".66" stop-color="#323335"/><stop offset=".664" stop-color="#313335"/><stop offset=".668" stop-color="#313234"/><stop offset=".672" stop-color="#303133"/><stop offset=".676" stop-color="#2f3132"/><stop offset=".68" stop-color="#2f3032"/><stop offset=".684" stop-color="#2e2f31"/><stop offset=".688" stop-color="#2e2f30"/><stop offset=".691" stop-color="#2d2e2f"/><stop offset=".695" stop-color="#2c2d2f"/><stop offset=".699" stop-color="#2c2d2e"/><stop offset=".703" stop-color="#2b2c2e"/><stop offset=".707" stop-color="#2b2b2d"/><stop offset=".711" stop-color="#2a2b2c"/><stop offset=".715" stop-color="#292a2c"/><stop offset=".719" stop-color="#292a2b"/><stop offset=".723" stop-color="#28292b"/><stop offset=".727" stop-color="#28292a"/><stop offset=".73" stop-color="#27282a"/><stop offset=".734" stop-color="#272829"/><stop offset=".738" stop-color="#262729"/><stop offset=".742" stop-color="#262728"/><stop offset=".746" stop-color="#252628"/><stop offset=".75" stop-color="#242527"/><stop offset=".754" stop-color="#242526"/><stop offset=".758" stop-color="#232426"/><stop offset=".762" stop-color="#232325"/><stop offset=".766" stop-color="#222324"/><stop offset=".77" stop-color="#222224"/><stop offset=".773" stop-color="#212223"/><stop offset=".777" stop-color="#212122"/><stop offset=".781" stop-color="#202022"/><stop offset=".785" stop-color="#1f2021"/><stop offset=".789" stop-color="#1f1f20"/><stop offset=".793" stop-color="#1e1e1f"/><stop offset=".797" stop-color="#1d1d1e"/><stop offset=".801" stop-color="#1c1d1e"/><stop offset=".805" stop-color="#1b1c1d"/><stop offset=".809" stop-color="#1b1b1c"/><stop offset=".813" stop-color="#1a1b1c"/><stop offset=".816" stop-color="#1a1a1b"/><stop offset=".82" stop-color="#191a1a"/><stop offset=".824" stop-color="#19191a"/><stop offset=".828" stop-color="#18191a"/><stop offset=".832" stop-color="#181819"/><stop offset=".836" stop-color="#181819"/><stop offset=".84" stop-color="#171818"/><stop offset=".844" stop-color="#171718"/><stop offset=".848" stop-color="#161717"/><stop offset=".852" stop-color="#161617"/><stop offset=".855" stop-color="#151616"/><stop offset=".859" stop-color="#151516"/><stop offset=".863" stop-color="#141415"/><stop offset=".867" stop-color="#141414"/><stop offset=".871" stop-color="#131314"/><stop offset=".875" stop-color="#131313"/><stop offset=".879" stop-color="#121213"/><stop offset=".883" stop-color="#121212"/><stop offset=".887" stop-color="#111112"/><stop offset=".891" stop-color="#111"/><stop offset=".895" stop-color="#101011"/><stop offset=".898" stop-color="#101010"/><stop offset=".902" stop-color="#101010"/><stop offset=".906" stop-color="#0f0f10"/><stop offset=".91" stop-color="#0f0f0f"/><stop offset=".914" stop-color="#0e0e0f"/><stop offset=".918" stop-color="#0d0e0e"/><stop offset=".922" stop-color="#0d0d0e"/><stop offset=".926" stop-color="#0c0d0d"/><stop offset=".93" stop-color="#0c0d0d"/><stop offset=".934" stop-color="#0c0c0d"/><stop offset=".938" stop-color="#0c0c0d"/><stop offset=".941" stop-color="#0b0c0c"/><stop offset=".945" stop-color="#0b0b0c"/><stop offset=".949" stop-color="#0a0b0b"/><stop offset=".953" stop-color="#0a0b0b"/><stop offset=".957" stop-color="#0a0a0b"/><stop offset=".961" stop-color="#090a0a"/><stop offset=".965" stop-color="#09090a"/><stop offset=".969" stop-color="#080909"/><stop offset=".973" stop-color="#080909"/><stop offset=".977" stop-color="#070808"/><stop offset=".98" stop-color="#070808"/><stop offset=".984" stop-color="#060708"/><stop offset=".988" stop-color="#060707"/><stop offset=".992" stop-color="#050607"/><stop offset=".996" stop-color="#050606"/><stop offset="1" stop-color="#040606"/></linearGradient><linearGradient gradientTransform="matrix(126.117 -346.503 394.711 143.663 -68.414 293.42)" gradientUnits="userSpaceOnUse" id="h" x1=".1" x2=".8" xlink:actuate="onLoad" xlink:show="other" xlink:type="simple" xmlns:xlink="http://www.w3.org/1999/xlink" y1="0" y2="0"><stop offset="0" stop-color="#050606"/><stop offset=".5" stop-color="#050606"/><stop offset="1" stop-color="#050606"/></linearGradient><linearGradient gradientTransform="matrix(126.117 -346.503 394.711 143.663 -68.414 293.42)" gradientUnits="userSpaceOnUse" id="l" x1=".8" x2="1.141" xlink:actuate="onLoad" xlink:show="other" xlink:type="simple" xmlns:xlink="http://www.w3.org/1999/xlink" y1="0" y2="0"><stop offset="0" stop-color="#040606"/><stop offset=".004" stop-color="#060808"/><stop offset=".008" stop-color="#090a0a"/><stop offset=".012" stop-color="#0b0b0c"/><stop offset=".016" stop-color="#0c0d0d"/><stop offset=".02" stop-color="#0f0f0f"/><stop offset=".023" stop-color="#111112"/><stop offset=".027" stop-color="#131414"/><stop offset=".031" stop-color="#161617"/><stop offset=".035" stop-color="#181819"/><stop offset=".039" stop-color="#1a1a1b"/><stop offset=".043" stop-color="#1d1d1e"/><stop offset=".047" stop-color="#202021"/><stop offset=".051" stop-color="#222324"/><stop offset=".055" stop-color="#252628"/><stop offset=".059" stop-color="#28282a"/><stop offset=".063" stop-color="#2a2b2d"/><stop offset=".066" stop-color="#2d2e30"/><stop offset=".07" stop-color="#303133"/><stop offset=".074" stop-color="#333537"/><stop offset=".078" stop-color="#36383a"/><stop offset=".082" stop-color="#3a3b3d"/><stop offset=".086" stop-color="#3d3e41"/><stop offset=".09" stop-color="#404244"/><stop offset=".094" stop-color="#434547"/><stop offset=".098" stop-color="#46484a"/><stop offset=".102" stop-color="#4a4c4e"/><stop offset=".105" stop-color="#4d4f51"/><stop offset=".109" stop-color="#505254"/><stop offset=".113" stop-color="#535658"/><stop offset=".117" stop-color="#565a5b"/><stop offset=".121" stop-color="#595d5f"/><stop offset=".125" stop-color="#5d6062"/><stop offset=".129" stop-color="#606365"/><stop offset=".133" stop-color="#636668"/><stop offset=".137" stop-color="#666a6c"/><stop offset=".141" stop-color="#696d6f"/><stop offset=".145" stop-color="#6d7173"/><stop offset=".148" stop-color="#707576"/><stop offset=".152" stop-color="#747879"/><stop offset=".156" stop-color="#777b7c"/><stop offset=".16" stop-color="#7b7e7f"/><stop offset=".164" stop-color="#7e8183"/><stop offset=".168" stop-color="#828586"/><stop offset=".172" stop-color="#87898a"/><stop offset=".176" stop-color="#8a8d8d"/><stop offset=".18" stop-color="#8e9190"/><stop offset=".184" stop-color="#919493"/><stop offset=".188" stop-color="#949796"/><stop offset=".191" stop-color="#979a9a"/><stop offset=".195" stop-color="#9b9d9d"/><stop offset=".199" stop-color="#9fa1a1"/><stop offset=".203" stop-color="#a3a6a5"/><stop offset=".207" stop-color="#a6a9a8"/><stop offset=".211" stop-color="#aaacab"/><stop offset=".215" stop-color="#aeb0af"/><stop offset=".219" stop-color="#b2b3b2"/><stop offset=".223" stop-color="#b6b7b6"/><stop offset=".227" stop-color="#babbba"/><stop offset=".23" stop-color="#bebfbd"/><stop offset=".234" stop-color="#c2c3c1"/><stop offset=".238" stop-color="#c5c7c5"/><stop offset=".242" stop-color="#c9cbc8"/><stop offset=".246" stop-color="#cdcfcc"/><stop offset=".25" stop-color="#d1d3d0"/><stop offset=".254" stop-color="#d5d6d4"/><stop offset=".258" stop-color="#d9dad7"/><stop offset=".262" stop-color="#dddedb"/><stop offset=".266" stop-color="#e2e2df"/><stop offset=".27" stop-color="#e6e6e3"/><stop offset=".273" stop-color="#eaeae7"/><stop offset=".277" stop-color="#eeedeb"/><stop offset=".281" stop-color="#f2f1f0"/><stop offset=".285" stop-color="#f6f6f5"/><stop offset=".289" stop-color="#fbfbfb"/><stop offset=".293" stop-color="#fdfdfd"/><stop offset=".297" stop-color="#fff"/><stop offset=".313" stop-color="#fff"/><stop offset=".375" stop-color="#fff"/><stop offset=".5" stop-color="#fff"/><stop offset="1" stop-color="#fff"/></linearGradient><radialGradient cx="0" cy="0" fx="0" fy="0" gradientTransform="translate(191.999 191.999)" gradientUnits="userSpaceOnUse" id="p" r="176.64" xlink:actuate="onLoad" xlink:show="other" xlink:type="simple" xmlns:xlink="http://www.w3.org/1999/xlink"><stop offset="0" stop-color="#28292a"/><stop offset=".063" stop-color="#28292a"/><stop offset=".09" stop-color="#28292a"/><stop offset=".094" stop-color="#28282a"/><stop offset=".098" stop-color="#27282a"/><stop offset=".152" stop-color="#27282a"/><stop offset=".156" stop-color="#272829"/><stop offset=".18" stop-color="#272729"/><stop offset=".203" stop-color="#272729"/><stop offset=".207" stop-color="#262729"/><stop offset=".211" stop-color="#262728"/><stop offset=".234" stop-color="#262628"/><stop offset=".246" stop-color="#252628"/><stop offset=".25" stop-color="#252627"/><stop offset=".254" stop-color="#252527"/><stop offset=".273" stop-color="#252527"/><stop offset=".281" stop-color="#252527"/><stop offset=".289" stop-color="#242527"/><stop offset=".293" stop-color="#242526"/><stop offset=".313" stop-color="#242426"/><stop offset=".32" stop-color="#232426"/><stop offset=".324" stop-color="#232425"/><stop offset=".332" stop-color="#232425"/><stop offset=".34" stop-color="#232325"/><stop offset=".359" stop-color="#222325"/><stop offset=".367" stop-color="#222324"/><stop offset=".371" stop-color="#222324"/><stop offset=".375" stop-color="#222224"/><stop offset=".383" stop-color="#212224"/><stop offset=".391" stop-color="#212223"/><stop offset=".395" stop-color="#212223"/><stop offset=".41" stop-color="#212123"/><stop offset=".418" stop-color="#212123"/><stop offset=".422" stop-color="#202122"/><stop offset=".426" stop-color="#202122"/><stop offset=".434" stop-color="#202022"/><stop offset=".441" stop-color="#202021"/><stop offset=".445" stop-color="#1f2021"/><stop offset=".453" stop-color="#1f1f21"/><stop offset=".461" stop-color="#1f1f21"/><stop offset=".465" stop-color="#1e1f20"/><stop offset=".473" stop-color="#1e1f20"/><stop offset=".48" stop-color="#1e1f20"/><stop offset=".484" stop-color="#1e1e1f"/><stop offset=".488" stop-color="#1e1e1f"/><stop offset=".496" stop-color="#1d1e1f"/><stop offset=".504" stop-color="#1d1d1e"/><stop offset=".508" stop-color="#1d1d1e"/><stop offset=".52" stop-color="#1c1d1e"/><stop offset=".523" stop-color="#1c1d1e"/><stop offset=".527" stop-color="#1c1c1d"/><stop offset=".539" stop-color="#1c1c1d"/><stop offset=".543" stop-color="#1b1c1d"/><stop offset=".547" stop-color="#1b1c1c"/><stop offset=".551" stop-color="#1b1b1c"/><stop offset=".555" stop-color="#1a1b1c"/><stop offset=".559" stop-color="#1a1b1b"/><stop offset=".57" stop-color="#1a1a1b"/><stop offset=".574" stop-color="#1a1a1b"/><stop offset=".578" stop-color="#191a1b"/><stop offset=".59" stop-color="#19191a"/><stop offset=".602" stop-color="#19191a"/><stop offset=".605" stop-color="#18191a"/><stop offset=".617" stop-color="#181919"/><stop offset=".621" stop-color="#181919"/><stop offset=".625" stop-color="#181819"/><stop offset=".629" stop-color="#181819"/><stop offset=".633" stop-color="#171818"/><stop offset=".652" stop-color="#171718"/><stop offset=".656" stop-color="#171718"/><stop offset=".66" stop-color="#161717"/><stop offset=".664" stop-color="#161617"/><stop offset=".684" stop-color="#161617"/><stop offset=".688" stop-color="#151616"/><stop offset=".691" stop-color="#151516"/><stop offset=".695" stop-color="#151516"/><stop offset=".699" stop-color="#151515"/><stop offset=".703" stop-color="#141415"/><stop offset=".707" stop-color="#141415"/><stop offset=".711" stop-color="#141414"/><stop offset=".719" stop-color="#131414"/><stop offset=".727" stop-color="#131314"/><stop offset=".73" stop-color="#131314"/><stop offset=".734" stop-color="#131313"/><stop offset=".742" stop-color="#121213"/><stop offset=".746" stop-color="#121213"/><stop offset=".75" stop-color="#121212"/><stop offset=".754" stop-color="#111212"/><stop offset=".766" stop-color="#111112"/><stop offset=".77" stop-color="#111112"/><stop offset=".773" stop-color="#111"/><stop offset=".777" stop-color="#101111"/><stop offset=".781" stop-color="#101011"/><stop offset=".785" stop-color="#101011"/><stop offset=".789" stop-color="#101010"/><stop offset=".793" stop-color="#101010"/><stop offset=".797" stop-color="#0f0f10"/><stop offset=".809" stop-color="#0f0f0f"/><stop offset=".82" stop-color="#0f0f0f"/><stop offset=".824" stop-color="#0e0e0f"/><stop offset=".828" stop-color="#0e0e0f"/><stop offset=".832" stop-color="#0e0e0e"/><stop offset=".836" stop-color="#0d0e0e"/><stop offset=".84" stop-color="#0d0d0e"/><stop offset=".844" stop-color="#0d0d0e"/><stop offset=".848" stop-color="#0c0d0d"/><stop offset=".855" stop-color="#0c0c0d"/><stop offset=".863" stop-color="#0c0c0d"/><stop offset=".867" stop-color="#0c0c0d"/><stop offset=".871" stop-color="#0c0c0d"/><stop offset=".875" stop-color="#0b0c0c"/><stop offset=".891" stop-color="#0b0c0c"/><stop offset=".895" stop-color="#0b0b0c"/><stop offset=".898" stop-color="#0b0b0c"/><stop offset=".902" stop-color="#0a0b0b"/><stop offset=".906" stop-color="#0a0b0b"/><stop offset=".91" stop-color="#0a0b0b"/><stop offset=".918" stop-color="#0a0a0b"/><stop offset=".922" stop-color="#090a0b"/><stop offset=".926" stop-color="#090a0a"/><stop offset=".93" stop-color="#090a0a"/><stop offset=".934" stop-color="#09090a"/><stop offset=".938" stop-color="#080909"/><stop offset=".941" stop-color="#080909"/><stop offset=".945" stop-color="#080909"/><stop offset=".949" stop-color="#080909"/><stop offset=".953" stop-color="#070809"/><stop offset=".957" stop-color="#070808"/><stop offset=".961" stop-color="#070808"/><stop offset=".965" stop-color="#060808"/><stop offset=".969" stop-color="#060708"/><stop offset=".973" stop-color="#060707"/><stop offset=".977" stop-color="#060707"/><stop offset=".98" stop-color="#050707"/><stop offset=".984" stop-color="#050607"/><stop offset=".988" stop-color="#050606"/><stop offset=".992" stop-color="#050606"/><stop offset=".996" stop-color="#040606"/><stop offset="1" stop-color="#040606"/></radialGradient></defs><g><g id="change1_1"><path d="M 384 192 C 384 298.039062 298.039062 384 192 384 C 85.960938 384 0 298.039062 0 192 C 0 85.960938 85.960938 0 192 0 C 298.039062 0 384 85.960938 384 192" fill="inherit"/></g><g clip-path="url(#a)"><g clip-path="url(#b)"><g clip-path="url(#c)"><path d="M -110.800781 333.199219 L 333.195312 494.800781 L 348.375 453.101562 L -95.621094 291.5 Z M -95.621094 291.5 L 348.375 453.101562 L 350.269531 447.886719 L -93.726562 286.285156 Z M -93.726562 286.285156 L 350.269531 447.886719 L 350.746094 446.585938 L -93.25 284.984375 Z M -93.25 284.984375 L 350.746094 446.585938 L 350.984375 445.933594 L -93.015625 284.332031 Z M -93.015625 284.332031 L 350.984375 445.933594 L 351.101562 445.609375 L -92.894531 284.007812 Z M -92.894531 284.007812 L 351.101562 445.609375 L 351.21875 445.28125 L -92.777344 283.679688 Z M -92.777344 283.679688 L 351.21875 445.28125 L 351.339844 444.957031 L -92.65625 283.355469 Z M -92.65625 283.355469 L 351.339844 444.957031 L 351.457031 444.628906 L -92.539062 283.027344 Z M -92.539062 283.027344 L 351.457031 444.628906 L 351.574219 444.304688 L -92.421875 282.703125 Z M -92.421875 282.703125 L 351.574219 444.304688 L 351.695312 443.980469 L -92.300781 282.378906 Z M -92.300781 282.378906 L 351.695312 443.980469 L 351.8125 443.652344 L -92.183594 282.050781 Z M -92.183594 282.050781 L 351.8125 443.652344 L 351.929688 443.328125 L -92.066406 281.726562 Z M -92.066406 281.726562 L 351.929688 443.328125 L 352.050781 443 L -91.945312 281.398438 Z M -91.945312 281.398438 L 352.050781 443 L 352.167969 442.675781 L -91.828125 281.074219 Z M -91.828125 281.074219 L 352.167969 442.675781 L 352.285156 442.351562 L -91.710938 280.75 Z M -91.710938 280.75 L 352.285156 442.351562 L 352.40625 442.023438 L -91.589844 280.421875 Z M -91.589844 280.421875 L 352.40625 442.023438 L 352.523438 441.699219 L -91.472656 280.097656 Z M -91.472656 280.097656 L 352.523438 441.699219 L 352.644531 441.371094 L -91.355469 279.773438 Z M -91.355469 279.773438 L 352.644531 441.371094 L 352.761719 441.046875 L -91.234375 279.445312 Z M -91.234375 279.445312 L 352.761719 441.046875 L 352.878906 440.722656 L -91.117188 279.121094 Z M -91.117188 279.121094 L 352.878906 440.722656 L 353 440.394531 L -90.996094 278.792969 Z M -90.996094 278.792969 L 353 440.394531 L 353.117188 440.070312 L -90.878906 278.46875 Z M -90.878906 278.46875 L 353.117188 440.070312 L 353.234375 439.742188 L -90.761719 278.144531 Z M -90.761719 278.144531 L 353.234375 439.742188 L 353.355469 439.417969 L -90.640625 277.816406 Z M -90.640625 277.816406 L 353.355469 439.417969 L 353.472656 439.09375 L -90.523438 277.492188 Z M -90.523438 277.492188 L 353.472656 439.09375 L 353.589844 438.765625 L -90.40625 277.164062 Z M -90.40625 277.164062 L 353.589844 438.765625 L 353.710938 438.441406 L -90.285156 276.839844 Z M -90.285156 276.839844 L 353.710938 438.441406 L 353.828125 438.117188 L -90.167969 276.515625 Z M -90.167969 276.515625 L 353.828125 438.117188 L 353.945312 437.789062 L -90.050781 276.1875 Z M -90.050781 276.1875 L 353.945312 437.789062 L 354.066406 437.464844 L -89.929688 275.863281 Z M -89.929688 275.863281 L 354.066406 437.464844 L 354.183594 437.136719 L -89.8125 275.535156 Z M -89.8125 275.535156 L 354.183594 437.136719 L 354.300781 436.8125 L -89.695312 275.210938 Z M -89.695312 275.210938 L 354.300781 436.8125 L 354.421875 436.488281 L -89.574219 274.886719 Z M -89.574219 274.886719 L 354.421875 436.488281 L 354.539062 436.160156 L -89.457031 274.558594 Z M -89.457031 274.558594 L 354.539062 436.160156 L 354.660156 435.835938 L -89.339844 274.234375 Z M -89.339844 274.234375 L 354.660156 435.835938 L 354.777344 435.507812 L -89.21875 273.90625 Z M -89.21875 273.90625 L 354.777344 435.507812 L 354.894531 435.183594 L -89.101562 273.582031 Z M -89.101562 273.582031 L 354.894531 435.183594 L 355.015625 434.859375 L -88.980469 273.257812 Z M -88.980469 273.257812 L 355.015625 434.859375 L 355.132812 434.53125 L -88.863281 272.929688 Z M -88.863281 272.929688 L 355.132812 434.53125 L 355.25 434.207031 L -88.746094 272.605469 Z M -88.746094 272.605469 L 355.25 434.207031 L 355.371094 433.878906 L -88.625 272.277344 Z M -88.625 272.277344 L 355.371094 433.878906 L 355.488281 433.554688 L -88.507812 271.953125 Z M -88.507812 271.953125 L 355.488281 433.554688 L 355.605469 433.230469 L -88.390625 271.628906 Z M -88.390625 271.628906 L 355.605469 433.230469 L 355.726562 432.902344 L -88.269531 271.300781 Z M -88.269531 271.300781 L 355.726562 432.902344 L 355.84375 432.578125 L -88.152344 270.976562 Z M -88.152344 270.976562 L 355.84375 432.578125 L 355.960938 432.25 L -88.035156 270.648438 Z M -88.035156 270.648438 L 355.960938 432.25 L 356.082031 431.925781 L -87.914062 270.324219 Z M -87.914062 270.324219 L 356.082031 431.925781 L 356.199219 431.601562 L -87.796875 270 Z M -87.796875 270 L 356.199219 431.601562 L 356.320312 431.273438 L -87.679688 269.671875 Z M -87.679688 269.671875 L 356.320312 431.273438 L 356.4375 430.949219 L -87.558594 269.347656 Z M -87.558594 269.347656 L 356.4375 430.949219 L 356.554688 430.621094 L -87.441406 269.019531 Z M -87.441406 269.019531 L 356.554688 430.621094 L 356.675781 430.296875 L -87.324219 268.695312 Z M -87.324219 268.695312 L 356.675781 430.296875 L 356.792969 429.972656 L -87.203125 268.371094 Z M -87.203125 268.371094 L 356.792969 429.972656 L 356.910156 429.644531 L -87.085938 268.042969 Z M -87.085938 268.042969 L 356.910156 429.644531 L 357.03125 429.320312 L -86.964844 267.71875 Z M -86.964844 267.71875 L 357.03125 429.320312 L 357.148438 428.992188 L -86.847656 267.390625 Z M -86.847656 267.390625 L 357.148438 428.992188 L 357.265625 428.667969 L -86.730469 267.066406 Z M -86.730469 267.066406 L 357.265625 428.667969 L 357.386719 428.34375 L -86.609375 266.742188 Z M -86.609375 266.742188 L 357.386719 428.34375 L 357.503906 428.015625 L -86.492188 266.414062 Z M -86.492188 266.414062 L 357.503906 428.015625 L 357.621094 427.691406 L -86.375 266.089844 Z M -86.375 266.089844 L 357.621094 427.691406 L 357.742188 427.363281 L -86.253906 265.761719 Z M -86.253906 265.761719 L 357.742188 427.363281 L 357.859375 427.039062 L -86.136719 265.4375 Z M -86.136719 265.4375 L 357.859375 427.039062 L 357.976562 426.714844 L -86.019531 265.113281 Z M -86.019531 265.113281 L 357.976562 426.714844 L 358.097656 426.386719 L -85.898438 264.785156 Z M -85.898438 264.785156 L 358.097656 426.386719 L 358.214844 426.0625 L -85.78125 264.460938 Z M -85.78125 264.460938 L 358.214844 426.0625 L 358.335938 425.734375 L -85.664062 264.132812 Z M -85.664062 264.132812 L 358.335938 425.734375 L 358.453125 425.410156 L -85.542969 263.808594 Z M -85.542969 263.808594 L 358.453125 425.410156 L 358.570312 425.085938 L -85.425781 263.484375 Z M -85.425781 263.484375 L 358.570312 425.085938 L 358.691406 424.757812 L -85.304688 263.15625 Z M -85.304688 263.15625 L 358.691406 424.757812 L 358.808594 424.433594 L -85.1875 262.832031 Z M -85.1875 262.832031 L 358.808594 424.433594 L 358.925781 424.105469 L -85.070312 262.503906 Z M -85.070312 262.503906 L 358.925781 424.105469 L 359.046875 423.78125 L -84.949219 262.179688 Z M -84.949219 262.179688 L 359.046875 423.78125 L 359.164062 423.457031 L -84.832031 261.855469 Z M -84.832031 261.855469 L 359.164062 423.457031 L 359.28125 423.128906 L -84.714844 261.527344 Z M -84.714844 261.527344 L 359.28125 423.128906 L 359.402344 422.804688 L -84.59375 261.203125 Z M -84.59375 261.203125 L 359.402344 422.804688 L 359.519531 422.476562 L -84.476562 260.878906 Z M -84.476562 260.878906 L 359.519531 422.476562 L 359.636719 422.152344 L -84.359375 260.550781 Z M -84.359375 260.550781 L 359.636719 422.152344 L 359.757812 421.828125 L -84.238281 260.226562 Z M -84.238281 260.226562 L 359.757812 421.828125 L 359.875 421.5 L -84.121094 259.898438 Z M -84.121094 259.898438 L 359.875 421.5 L 359.992188 421.175781 L -84.003906 259.574219 Z M -84.003906 259.574219 L 359.992188 421.175781 L 360.113281 420.847656 L -83.882812 259.25 Z M -83.882812 259.25 L 360.113281 420.847656 L 360.230469 420.523438 L -83.765625 258.921875 Z M -83.765625 258.921875 L 360.230469 420.523438 L 360.351562 420.199219 L -83.648438 258.597656 Z M -83.648438 258.597656 L 360.351562 420.199219 L 360.46875 419.871094 L -83.527344 258.269531 Z M -83.527344 258.269531 L 360.46875 419.871094 L 360.585938 419.546875 L -83.410156 257.945312 Z M -83.410156 257.945312 L 360.585938 419.546875 L 360.707031 419.21875 L -83.289062 257.621094 Z M -83.289062 257.621094 L 360.707031 419.21875 L 360.824219 418.894531 L -83.171875 257.292969 Z M -83.171875 257.292969 L 360.824219 418.894531 L 360.941406 418.570312 L -83.054688 256.96875 Z M -83.054688 256.96875 L 360.941406 418.570312 L 361.0625 418.242188 L -82.933594 256.640625 Z M -82.933594 256.640625 L 361.0625 418.242188 L 361.179688 417.917969 L -82.816406 256.316406 Z M -82.816406 256.316406 L 361.179688 417.917969 L 361.296875 417.59375 L -82.699219 255.992188 Z M -82.699219 255.992188 L 361.296875 417.59375 L 361.417969 417.265625 L -82.578125 255.664062 Z M -82.578125 255.664062 L 361.417969 417.265625 L 361.535156 416.941406 L -82.460938 255.339844 Z M -82.460938 255.339844 L 361.535156 416.941406 L 361.652344 416.613281 L -82.34375 255.011719 Z M -82.34375 255.011719 L 361.652344 416.613281 L 361.773438 416.289062 L -82.222656 254.6875 Z M -82.222656 254.6875 L 361.773438 416.289062 L 361.890625 415.964844 L -82.105469 254.363281 Z M -82.105469 254.363281 L 361.890625 415.964844 L 362.011719 415.636719 L -81.988281 254.035156 Z M -81.988281 254.035156 L 362.011719 415.636719 L 362.128906 415.3125 L -81.867188 253.710938 Z M -81.867188 253.710938 L 362.128906 415.3125 L 362.246094 414.984375 L -81.75 253.382812 Z M -81.75 253.382812 L 362.246094 414.984375 L 362.367188 414.660156 L -81.632812 253.058594 Z M -81.632812 253.058594 L 362.367188 414.660156 L 362.484375 414.335938 L -81.511719 252.734375 Z M -81.511719 252.734375 L 362.484375 414.335938 L 362.601562 414.007812 L -81.394531 252.40625 Z M -81.394531 252.40625 L 362.601562 414.007812 L 362.722656 413.683594 L -81.273438 252.082031 Z M -81.273438 252.082031 L 362.722656 413.683594 L 362.839844 413.355469 L -81.15625 251.753906 Z M -81.15625 251.753906 L 362.839844 413.355469 L 362.957031 413.03125 L -81.039062 251.429688 Z M -81.039062 251.429688 L 362.957031 413.03125 L 363.078125 412.707031 L -80.917969 251.105469 Z M -80.917969 251.105469 L 363.078125 412.707031 L 363.195312 412.378906 L -80.800781 250.777344 Z M -80.800781 250.777344 L 363.195312 412.378906 L 363.3125 412.054688 L -80.683594 250.453125 Z M -80.683594 250.453125 L 363.3125 412.054688 L 363.433594 411.726562 L -80.5625 250.125 Z M -80.5625 250.125 L 363.433594 411.726562 L 363.550781 411.402344 L -80.445312 249.800781 Z M -80.5625 250.125" fill="url(#d)"/></g></g></g><g clip-path="url(#e)"><g clip-path="url(#f)"><g clip-path="url(#g)"><path d="M -110.800781 333.199219 L 333.195312 494.800781 L 494.800781 50.804688 L 50.800781 -110.796875 Z M -110.800781 333.199219" fill="url(#h)"/></g></g></g><g clip-path="url(#i)"><g clip-path="url(#j)"><g clip-path="url(#k)"><path d="M 7.835938 7.25 L 451.832031 168.851562 L 452 168.390625 L 8.003906 6.789062 Z M 8.003906 6.789062 L 452 168.390625 L 452.167969 167.929688 L 8.171875 6.328125 Z M 8.171875 6.328125 L 452.167969 167.929688 L 452.335938 167.464844 L 8.339844 5.867188 Z M 8.339844 5.867188 L 452.335938 167.464844 L 452.503906 167.003906 L 8.507812 5.402344 Z M 8.507812 5.402344 L 452.503906 167.003906 L 452.671875 166.542969 L 8.675781 4.941406 Z M 8.675781 4.941406 L 452.671875 166.542969 L 452.839844 166.082031 L 8.84375 4.480469 Z M 8.84375 4.480469 L 452.839844 166.082031 L 453.007812 165.621094 L 9.011719 4.019531 Z M 9.011719 4.019531 L 453.007812 165.621094 L 453.175781 165.160156 L 9.179688 3.558594 Z M 9.179688 3.558594 L 453.175781 165.160156 L 453.34375 164.699219 L 9.347656 3.097656 Z M 9.347656 3.097656 L 453.34375 164.699219 L 453.511719 164.238281 L 9.515625 2.636719 Z M 9.515625 2.636719 L 453.511719 164.238281 L 453.679688 163.777344 L 9.683594 2.175781 Z M 9.683594 2.175781 L 453.679688 163.777344 L 453.847656 163.316406 L 9.851562 1.714844 Z M 9.851562 1.714844 L 453.847656 163.316406 L 454.015625 162.855469 L 10.019531 1.253906 Z M 10.019531 1.253906 L 454.015625 162.855469 L 454.183594 162.394531 L 10.1875 0.792969 Z M 10.1875 0.792969 L 454.183594 162.394531 L 454.351562 161.933594 L 10.355469 0.332031 Z M 10.355469 0.332031 L 454.351562 161.933594 L 454.519531 161.472656 L 10.523438 -0.128906 Z M 10.523438 -0.128906 L 454.519531 161.472656 L 454.6875 161.011719 L 10.691406 -0.589844 Z M 10.691406 -0.589844 L 454.6875 161.011719 L 454.855469 160.550781 L 10.859375 -1.050781 Z M 10.859375 -1.050781 L 454.855469 160.550781 L 455.023438 160.089844 L 11.027344 -1.511719 Z M 11.027344 -1.511719 L 455.023438 160.089844 L 455.191406 159.628906 L 11.195312 -1.972656 Z M 11.195312 -1.972656 L 455.191406 159.628906 L 455.359375 159.167969 L 11.359375 -2.433594 Z M 11.359375 -2.433594 L 455.359375 159.167969 L 455.527344 158.707031 L 11.527344 -2.894531 Z M 11.527344 -2.894531 L 455.527344 158.707031 L 455.691406 158.246094 L 11.695312 -3.355469 Z M 11.695312 -3.355469 L 455.691406 158.246094 L 455.859375 157.785156 L 11.863281 -3.816406 Z M 11.863281 -3.816406 L 455.859375 157.785156 L 456.027344 157.320312 L 12.03125 -4.28125 Z M 12.03125 -4.28125 L 456.027344 157.320312 L 456.195312 156.859375 L 12.199219 -4.742188 Z M 12.199219 -4.742188 L 456.195312 156.859375 L 456.363281 156.398438 L 12.367188 -5.203125 Z M 12.367188 -5.203125 L 456.363281 156.398438 L 456.53125 155.9375 L 12.535156 -5.664062 Z M 12.535156 -5.664062 L 456.53125 155.9375 L 456.699219 155.476562 L 12.703125 -6.125 Z M 12.703125 -6.125 L 456.699219 155.476562 L 456.867188 155.015625 L 12.871094 -6.585938 Z M 12.871094 -6.585938 L 456.867188 155.015625 L 457.035156 154.554688 L 13.039062 -7.046875 Z M 13.039062 -7.046875 L 457.035156 154.554688 L 457.203125 154.09375 L 13.207031 -7.507812 Z M 13.207031 -7.507812 L 457.203125 154.09375 L 457.371094 153.632812 L 13.375 -7.96875 Z M 13.375 -7.96875 L 457.371094 153.632812 L 457.539062 153.171875 L 13.542969 -8.429688 Z M 13.542969 -8.429688 L 457.539062 153.171875 L 457.707031 152.710938 L 13.710938 -8.890625 Z M 13.710938 -8.890625 L 457.707031 152.710938 L 457.875 152.25 L 13.878906 -9.351562 Z M 13.878906 -9.351562 L 457.875 152.25 L 458.042969 151.789062 L 14.046875 -9.8125 Z M 14.046875 -9.8125 L 458.042969 151.789062 L 458.210938 151.328125 L 14.214844 -10.273438 Z M 14.214844 -10.273438 L 458.210938 151.328125 L 458.378906 150.867188 L 14.382812 -10.734375 Z M 14.382812 -10.734375 L 458.378906 150.867188 L 458.546875 150.40625 L 14.550781 -11.195312 Z M 14.550781 -11.195312 L 458.546875 150.40625 L 458.714844 149.945312 L 14.71875 -11.65625 Z M 14.71875 -11.65625 L 458.714844 149.945312 L 458.882812 149.484375 L 14.886719 -12.117188 Z M 14.886719 -12.117188 L 458.882812 149.484375 L 459.050781 149.023438 L 15.054688 -12.578125 Z M 15.054688 -12.578125 L 459.050781 149.023438 L 459.21875 148.5625 L 15.222656 -13.039062 Z M 15.222656 -13.039062 L 459.21875 148.5625 L 459.386719 148.101562 L 15.390625 -13.5 Z M 15.390625 -13.5 L 459.386719 148.101562 L 459.554688 147.636719 L 15.558594 -13.964844 Z M 15.558594 -13.964844 L 459.554688 147.636719 L 459.722656 147.175781 L 15.726562 -14.425781 Z M 15.726562 -14.425781 L 459.722656 147.175781 L 459.890625 146.714844 L 15.894531 -14.886719 Z M 15.894531 -14.886719 L 459.890625 146.714844 L 460.058594 146.253906 L 16.0625 -15.347656 Z M 16.0625 -15.347656 L 460.058594 146.253906 L 460.226562 145.792969 L 16.226562 -15.808594 Z M 16.226562 -15.808594 L 460.226562 145.792969 L 460.394531 145.332031 L 16.394531 -16.269531 Z M 16.394531 -16.269531 L 460.394531 145.332031 L 460.558594 144.871094 L 16.5625 -16.730469 Z M 16.5625 -16.730469 L 460.558594 144.871094 L 460.726562 144.410156 L 16.730469 -17.191406 Z M 16.730469 -17.191406 L 460.726562 144.410156 L 460.894531 143.949219 L 16.898438 -17.652344 Z M 16.898438 -17.652344 L 460.894531 143.949219 L 461.0625 143.488281 L 17.066406 -18.113281 Z M 17.066406 -18.113281 L 461.0625 143.488281 L 461.230469 143.027344 L 17.234375 -18.574219 Z M 17.234375 -18.574219 L 461.230469 143.027344 L 461.398438 142.566406 L 17.402344 -19.035156 Z M 17.402344 -19.035156 L 461.398438 142.566406 L 461.566406 142.105469 L 17.570312 -19.496094 Z M 17.570312 -19.496094 L 461.566406 142.105469 L 461.734375 141.644531 L 17.738281 -19.957031 Z M 17.738281 -19.957031 L 461.734375 141.644531 L 461.902344 141.183594 L 17.90625 -20.417969 Z M 17.90625 -20.417969 L 461.902344 141.183594 L 462.070312 140.722656 L 18.074219 -20.878906 Z M 18.074219 -20.878906 L 462.070312 140.722656 L 462.238281 140.261719 L 18.242188 -21.339844 Z M 18.242188 -21.339844 L 462.238281 140.261719 L 462.40625 139.800781 L 18.410156 -21.800781 Z M 18.410156 -21.800781 L 462.40625 139.800781 L 462.574219 139.339844 L 18.578125 -22.261719 Z M 18.578125 -22.261719 L 462.574219 139.339844 L 462.742188 138.878906 L 18.746094 -22.722656 Z M 18.746094 -22.722656 L 462.742188 138.878906 L 462.910156 138.417969 L 18.914062 -23.183594 Z M 18.914062 -23.183594 L 462.910156 138.417969 L 463.078125 137.953125 L 19.082031 -23.644531 Z M 19.082031 -23.644531 L 463.078125 137.953125 L 463.246094 137.492188 L 19.25 -24.109375 Z M 19.25 -24.109375 L 463.246094 137.492188 L 463.414062 137.03125 L 19.417969 -24.570312 Z M 19.417969 -24.570312 L 463.414062 137.03125 L 463.582031 136.570312 L 19.585938 -25.03125 Z M 19.585938 -25.03125 L 463.582031 136.570312 L 463.75 136.109375 L 19.753906 -25.492188 Z M 19.753906 -25.492188 L 463.75 136.109375 L 463.917969 135.648438 L 19.921875 -25.953125 Z M 19.921875 -25.953125 L 463.917969 135.648438 L 464.085938 135.1875 L 20.089844 -26.414062 Z M 20.089844 -26.414062 L 464.085938 135.1875 L 464.253906 134.726562 L 20.257812 -26.875 Z M 20.257812 -26.875 L 464.253906 134.726562 L 464.421875 134.265625 L 20.425781 -27.335938 Z M 20.425781 -27.335938 L 464.421875 134.265625 L 464.589844 133.804688 L 20.59375 -27.796875 Z M 20.59375 -27.796875 L 464.589844 133.804688 L 465.261719 131.960938 L 21.261719 -29.640625 Z M 21.261719 -29.640625 L 465.261719 131.960938 L 467.945312 124.582031 L 23.949219 -37.019531 Z M 23.949219 -37.019531 L 467.945312 124.582031 L 473.316406 109.828125 L 29.320312 -51.773438 Z M 29.320312 -51.773438 L 473.316406 109.828125 L 494.800781 50.804688 L 50.800781 -110.796875 Z M 29.320312 -51.773438" fill="url(#l)"/></g></g></g><g clip-path="url(#m)"><g clip-path="url(#n)"><g clip-path="url(#o)"><path d="M 15.359375 15.359375 L 15.359375 368.640625 L 368.640625 368.640625 L 368.640625 15.359375 Z M 15.359375 15.359375" fill="url(#p)"/></g></g></g></g></svg>